ply 
format ascii 1.0
element vertex 217
property float x
property float y
property float z
property uchar blue
property uchar green
property uchar red
end_header
131.661 -36.9993 -290.175 255 255 255
134.926 -24.2089 -290.605 255 255 255
135.97 -31.2649 -289.025 255 255 255
136.197 -44.2462 -291.703 255 255 255
143.46 -29.4399 -287.643 255 255 255
139.69 -37.1234 -289.712 255 255 255
136.197 -44.2462 -291.703 255 255 255
133.764 -49.4662 -294.109 255 255 255
144.732 -19.1138 -290.343 255 255 255
140.878 -32.2591 -288.961 255 255 255
138.185 -24.8166 -290.297 255 255 255
125.464 -45.6154 -293.355 255 255 255
139.769 -26.0965 -290.687 255 255 255
138.21 -16.103 -293.675 255 255 255
143.381 -14.7406 -293.175 255 255 255
147.709 -12.9022 -293.411 255 255 255
135.291 -6.40012 -301.406 255 255 255
140.967 -54.1642 -296.395 255 255 255
142.795 -22.0233 -289.725 255 255 255
132.927 -46.4063 -293.464 255 255 255
139.573 -51.9671 -293.847 255 255 255
149.047 -17.1531 -291.153 255 255 255
141.937 -11.8099 -295.803 255 255 255
145.809 -12.2192 -294.492 255 255 255
149.795 -7.19349 -297.99 255 255 255
148.242 -33.0404 -287.469 255 255 255
134.287 -36.2021 -290.472 255 255 255
145.069 -38.4506 -287.877 255 255 255
133.078 -39.4101 -291.272 255 255 255
131.591 -25.33 -291.196 255 255 255
133.078 -39.4101 -291.272 255 255 255
145.015 -30.3683 -287.45 255 255 255
136.332 -39.0522 -289.204 255 255 255
136.877 -19.5536 -291.983 255 255 255
143.418 -16.7459 -293.127 255 255 255
144.334 -7.81788 -298.807 255 255 255
134.987 -9.47588 -299.364 255 255 255
138.836 -13.8086 -294.921 255 255 255
149.531 -15.2888 -291.987 255 255 255
147.247 -6.08586 -299.351 255 255 255
132.436 -35.1992 -289.451 255 255 255
141.145 -37.8941 -288.348 255 255 255
143.24 -31.1642 -288.486 255 255 255
139.893 -34.8352 -288.803 255 255 255
136.401 -9.19391 -298.383 255 255 255
134.958 -46.7189 -292.65 255 255 255
143.425 -32.6329 -288.506 255 255 255
141.027 -16.9999 -291.865 255 255 255
148.335 -19.4466 -289.918 255 255 255
137.127 -57.8194 -300.177 255 255 255
135.938 -49.8786 -294.191 255 255 255
137.471 -12.2596 -296.294 255 255 255
146.275 -23.7639 -288.451 255 255 255
133.195 -40.5917 -290.231 255 255 255
135.35 -11.389 -296.015 255 255 255
137.471 -12.2596 -296.294 255 255 255
139.316 -26.3529 -289.689 255 255 255
145.955 -15.3796 -292.25 255 255 255
140.263 -45.4661 -290.569 255 255 255
139.156 -27.8546 -289.413 255 255 255
137.992 -31.6515 -288.245 255 255 255
139.415 -12.6809 -294.22 255 255 255
141.778 -24.5165 -289.541 255 255 255
150.763 -15.0355 -290.913 255 255 255
132.222 -41.3284 -291.398 255 255 255
136.718 -41.5489 -290.798 255 255 255
138.396 -32.8694 -288.877 255 255 255
135.58 -54.4106 -297.94 255 255 255
133.866 -43.2198 -291.288 255 255 255
149.002 -8.25807 -298.174 255 255 255
134.327 -45.354 -291.385 255 255 255
134.686 -40.1706 -290.592 255 255 255
144.914 -29.1027 -287.304 255 255 255
145.112 -10.0738 -295.941 255 255 255
135.656 -10.3036 -296.877 255 255 255
139.156 -27.8546 -289.413 255 255 255
140.97 -29.5142 -289.125 255 255 255
150.449 -8.3404 -296.408 255 255 255
136.97 -22.8595 -291.813 255 255 255
134.884 -52.4029 -296.791 255 255 255
131.147 -33.1047 -290.292 255 255 255
137.992 -31.6515 -288.245 255 255 255
142.176 -30.6327 -289.006 255 255 255
137.453 -53.8981 -297.165 255 255 255
143.24 -31.1642 -288.486 255 255 255
146 -30.4782 -287.161 255 255 255
139.204 -25.2545 -290.008 255 255 255
147.404 -6.90763 -298.768 255 255 255
140.88 -55.3395 -297.767 255 255 255
148.775 -4.36145 -300.523 255 255 255
143.425 -32.6329 -288.506 255 255 255
151.037 -61.4359 -302.547 255 255 255
142.71 -19.2619 -291.776 255 255 255
148.887 -58.1029 -297.903 255 255 255
142.234 -39.0968 -288.722 255 255 255
143.743 -37.549 -288.472 255 255 255
140.168 -13.7786 -295.606 255 255 255
143.474 -57.2897 -297.855 255 255 255
136.029 -21.6395 -291.911 255 255 255
140.145 -55.3151 -295.111 255 255 255
139.57 -21.4537 -291.002 255 255 255
145.069 -38.4506 -287.877 255 255 255
147.583 -10.4018 -296.621 255 255 255
151.037 -61.4359 -302.547 255 255 255
141.961 -43.722 -290.213 255 255 255
53.717 -27.0468 -305.687 255 255 255
34.808 -32.6996 -308.108 255 255 255
47.6042 -25.5225 -307.004 255 255 255
50.3646 -48.2861 -309.426 255 255 255
39.8554 -11.5275 -314.506 255 255 255
38.7301 -31.9707 -307.645 255 255 255
38.8592 -14.8906 -312.216 255 255 255
54.2137 -20.0182 -307.301 255 255 255
50.7386 -20.1277 -308.378 255 255 255
49.0181 -33.424 -306.587 255 255 255
50.7074 -41.8628 -307.127 255 255 255
48.9379 -61.3645 -318.684 255 255 255
39.6354 -33.8084 -307.284 255 255 255
43.4323 -28.2639 -306.907 255 255 255
45.3707 -20.6428 -309.018 255 255 255
40.1967 -18.7122 -310.373 255 255 255
34.2542 -19.8123 -310.525 255 255 255
46.8148 -38.0992 -306.519 255 255 255
33.6439 -45.5087 -310.776 255 255 255
37.5329 -45.1849 -309.205 255 255 255
33.8297 -49.0462 -312.588 255 255 255
48.6296 -13.8803 -311.597 255 255 255
39.6354 -33.8084 -307.284 255 255 255
45.6067 -9.25091 -315.337 255 255 255
33.1321 -42.2225 -309.644 255 255 255
45.7535 -42.2418 -308.019 255 255 255
44.4059 -14.2552 -311.871 255 255 255
46.0183 -33.9685 -306.355 255 255 255
45.8039 -52.4313 -313.087 255 255 255
49.4368 -27.0799 -306.751 255 255 255
48.1982 -20.0781 -308.403 255 255 255
39.3946 -21.2941 -309.199 255 255 255
39.1467 -55.3597 -315.943 255 255 255
41.729 -26.4658 -307.95 255 255 255
50.6389 -23.4119 -308.292 255 255 255
34.2401 -18.0634 -311.529 255 255 255
40.9679 -16.2414 -311.545 255 255 255
49.3967 -52.5101 -311.219 255 255 255
42.9973 -16.6844 -310.69 255 255 255
36.353 -17.572 -310.831 255 255 255
37.1036 -53.2577 -314.247 255 255 255
44.9017 -31.335 -306.645 255 255 255
47.0904 -28.1863 -306.896 255 255 255
51.0566 -14.1734 -312.013 255 255 255
41.4575 -23.1724 -308.683 255 255 255
50.1431 -21.443 -308.348 255 255 255
39.7792 -15.4335 -312.24 255 255 255
39.8557 -35.9474 -308.155 255 255 255
44.9017 -31.335 -306.645 255 255 255
51.5167 -26.8809 -306.073 255 255 255
52.5662 -54.9942 -314.017 255 255 255
45.1349 -11.4946 -314.807 255 255 255
47.7062 -35.5358 -306.507 255 255 255
35.3343 -29.2942 -308.181 255 255 255
51.7976 -24.328 -307.053 255 255 255
37.6492 -30.7391 -307.524 255 255 255
48.5431 -56.9226 -316.037 255 255 255
51.546 -57.9679 -317.282 255 255 255
39.8639 -26.6414 -307.651 255 255 255
46.8148 -38.0992 -306.519 255 255 255
52.9306 -23.0717 -305.607 255 255 255
37.1955 -47.9849 -311.622 255 255 255
26.8081 -40.6322 -309.703 255 255 255
38.4873 -22.808 -308.589 255 255 255
46.595 -41.0243 -308.347 255 255 255
44.8321 -38.0856 -307.329 255 255 255
45.1349 -11.4946 -314.807 255 255 255
50.8702 -31.2361 -305.974 255 255 255
41.0635 -9.53258 -315.537 255 255 255
46.9412 -6.92471 -317.245 255 255 255
51.0835 -18.937 -308.808 255 255 255
41.3282 -36.5789 -307.193 255 255 255
47.4485 -55.1444 -314.232 255 255 255
46.0635 -44.2196 -308.598 255 255 255
48.0253 -9.31642 -316.13 255 255 255
48.5369 -28.6879 -306.223 255 255 255
34.5109 -7.43259 -317.889 255 255 255
52.0802 -28.538 -305.026 255 255 255
35.6823 -61.4513 -323.885 255 255 255
41.2733 -32.6179 -306.759 255 255 255
52.1264 -52.5846 -312.236 255 255 255
45.6708 -47.0009 -309.916 255 255 255
41.6611 -23.9175 -308.478 255 255 255
38.4873 -22.808 -308.589 255 255 255
58.6283 -47.6753 -306.944 255 255 255
39.1447 -13.6159 -313.775 255 255 255
41.7383 -11.1523 -314.48 255 255 255
35.7469 -50.5631 -312.289 255 255 255
42.188 -45.8208 -309.374 255 255 255
36.3994 -11.8468 -315.004 255 255 255
51.7889 -18.3192 -308.239 255 255 255
49.2051 -58.1724 -316.897 255 255 255
47.919 -11.2254 -313.253 255 255 255
47.0776 -45.0686 -308.546 255 255 255
37.3066 -55.0639 -316.265 255 255 255
33.403 -23.9441 -308.598 255 255 255
36.0466 -49.8696 -313.258 255 255 255
43.1055 -25.8229 -307.709 255 255 255
52.0802 -28.538 -305.026 255 255 255
34.7899 -27.6628 -308.176 255 255 255
50.9897 -9.4739 -314.057 255 255 255
46.0635 -44.2196 -308.598 255 255 255
50.4447 -15.1213 -310.664 255 255 255
40.3835 -32.3562 -307.845 255 255 255
53.6054 -62.5519 -322.808 255 255 255
34.9377 -13.1722 -314.765 255 255 255
47.7572 -42.3648 -307.585 255 255 255
49.7139 -11.9008 -312.356 255 255 255
49.8038 -39.9834 -307.872 255 255 255
58.6283 -47.6753 -306.944 255 255 255
46.9183 -22.7255 -308.343 255 255 255
43.206 -21.6498 -308.615 255 255 255
