ply 
format ascii 1.0
element vertex 217
property float x
property float y
property float z
property uchar blue
property uchar green
property uchar red
end_header
131.662 -37.0196 -290.16 255 255 255
134.924 -24.2584 -290.592 255 255 255
135.969 -31.2989 -289.01 255 255 255
136.203 -44.242 -291.694 255 255 255
143.461 -29.4594 -287.635 255 255 255
139.691 -37.1379 -289.701 255 255 255
136.203 -44.242 -291.694 255 255 255
133.77 -49.4698 -294.095 255 255 255
144.728 -19.1892 -290.331 255 255 255
140.874 -32.3224 -288.94 255 255 255
138.181 -24.8859 -290.28 255 255 255
125.472 -45.6094 -293.344 255 255 255
139.763 -26.1865 -290.665 255 255 255
138.206 -16.1728 -293.665 255 255 255
143.376 -14.8398 -293.163 255 255 255
147.704 -13.0228 -293.4 255 255 255
135.287 -6.57659 -301.395 255 255 255
140.973 -54.1641 -296.382 255 255 255
142.796 -22.0348 -289.721 255 255 255
132.924 -46.4565 -293.434 255 255 255
139.575 -51.9971 -293.824 255 255 255
149.044 -17.2062 -291.147 255 255 255
141.933 -11.8978 -295.796 255 255 255
145.805 -12.3244 -294.483 255 255 255
149.791 -7.32747 -297.985 255 255 255
148.24 -33.0793 -287.456 255 255 255
134.284 -36.2572 -290.448 255 255 255
145.066 -38.5037 -287.857 255 255 255
133.089 -39.3589 -291.279 255 255 255
131.589 -25.3796 -291.18 255 255 255
133.089 -39.3589 -291.279 255 255 255
145.014 -30.4011 -287.439 255 255 255
136.333 -39.0746 -289.189 255 255 255
136.873 -19.6344 -291.967 255 255 255
143.413 -16.8569 -293.112 255 255 255
144.33 -7.96715 -298.799 255 255 255
134.982 -9.62879 -299.351 255 255 255
138.834 -13.8568 -294.915 255 255 255
149.525 -15.4048 -291.975 255 255 255
147.245 -6.17304 -299.349 255 255 255
132.438 -35.214 -289.439 255 255 255
141.151 -37.8763 -288.345 255 255 255
143.238 -31.2144 -288.47 255 255 255
139.891 -34.8817 -288.784 255 255 255
136.397 -9.30997 -298.374 255 255 255
134.958 -46.7556 -292.625 255 255 255
143.428 -32.6245 -288.503 255 255 255
141.02 -17.1264 -291.847 255 255 255
148.333 -19.4722 -289.914 255 255 255
137.13 -57.8453 -300.15 255 255 255
135.951 -49.844 -294.191 255 255 255
137.465 -12.3946 -296.28 255 255 255
146.274 -23.7927 -288.445 255 255 255
133.201 -40.5831 -290.225 255 255 255
135.347 -11.4915 -296.004 255 255 255
137.465 -12.3946 -296.28 255 255 255
139.314 -26.3997 -289.676 255 255 255
145.951 -15.4591 -292.241 255 255 255
140.265 -45.4896 -290.552 255 255 255
139.15 -27.944 -289.389 255 255 255
137.993 -31.6741 -288.234 255 255 255
139.41 -12.7853 -294.209 255 255 255
141.774 -24.5848 -289.525 255 255 255
150.758 -15.1329 -290.904 255 255 255
132.231 -41.2991 -291.397 255 255 255
136.723 -41.5495 -290.789 255 255 255
138.396 -32.8995 -288.863 255 255 255
135.585 -54.4258 -297.92 255 255 255
133.866 -43.2543 -291.265 255 255 255
148.998 -8.36792 -298.169 255 255 255
134.323 -45.4188 -291.351 255 255 255
134.689 -40.1878 -290.577 255 255 255
144.912 -29.1487 -287.291 255 255 255
145.108 -10.2045 -295.932 255 255 255
135.653 -10.3924 -296.869 255 255 255
139.15 -27.944 -289.389 255 255 255
140.967 -29.5727 -289.107 255 255 255
150.445 -8.44276 -296.404 255 255 255
136.977 -22.7975 -291.822 255 255 255
134.892 -52.3963 -296.78 255 255 255
131.146 -33.1417 -290.274 255 255 255
137.993 -31.6741 -288.234 255 255 255
142.175 -30.6673 -288.993 255 255 255
137.461 -53.8959 -297.153 255 255 255
143.238 -31.2144 -288.47 255 255 255
145.993 -30.5706 -287.138 255 255 255
139.204 -25.2634 -290.003 255 255 255
147.4 -7.04666 -298.763 255 255 255
140.871 -55.4277 -297.719 255 255 255
148.772 -4.46529 -300.522 255 255 255
143.428 -32.6245 -288.503 255 255 255
151.046 -61.4315 -302.536 255 255 255
142.714 -19.2077 -291.783 255 255 255
148.898 -58.0824 -297.898 255 255 255
142.24 -39.0834 -288.719 255 255 255
143.743 -37.5781 -288.458 255 255 255
140.165 -13.853 -295.598 255 255 255
143.476 -57.3224 -297.829 255 255 255
136.03 -21.6348 -291.909 255 255 255
140.176 -55.1816 -295.15 255 255 255
139.561 -21.5896 -290.976 255 255 255
145.066 -38.5037 -287.857 255 255 255
147.58 -10.4688 -296.617 255 255 255
151.046 -61.4315 -302.536 255 255 255
141.962 -43.75 -290.195 255 255 255
53.6976 -27.1772 -305.476 255 255 255
34.7861 -32.8122 -307.713 255 255 255
47.5811 -25.6638 -306.739 255 255 255
50.353 -48.3742 -309.193 255 255 255
39.8475 -11.6338 -314.338 255 255 255
38.7153 -32.0626 -307.356 255 255 255
38.8489 -14.9925 -312.013 255 255 255
54.1874 -20.2173 -307.063 255 255 255
50.7296 -20.2208 -308.231 255 255 255
49.0046 -33.5172 -306.374 255 255 255
50.7017 -41.9292 -306.95 255 255 255
48.9197 -61.4829 -318.355 255 255 255
39.6255 -33.8848 -307.036 255 255 255
43.4098 -28.3905 -306.609 255 255 255
45.3636 -20.7194 -308.861 255 255 255
40.1712 -18.8763 -310.046 255 255 255
34.2327 -19.9393 -310.17 255 255 255
46.7921 -38.2207 -306.219 255 255 255
33.6173 -45.6436 -310.268 255 255 255
37.5534 -45.1796 -309.157 255 255 255
33.8127 -49.1579 -312.157 255 255 255
48.6213 -13.9905 -311.459 255 255 255
39.6255 -33.8848 -307.036 255 255 255
45.6013 -9.36549 -315.217 255 255 255
33.1109 -42.3383 -309.194 255 255 255
45.7388 -42.3367 -307.754 255 255 255
44.4011 -14.3333 -311.742 255 255 255
46.0073 -34.0505 -306.141 255 255 255
45.7872 -52.5385 -312.774 255 255 255
49.4218 -27.1861 -306.545 255 255 255
48.192 -20.1536 -308.265 255 255 255
39.3783 -21.4046 -308.934 255 255 255
39.1321 -55.4678 -315.572 255 255 255
41.7088 -26.5845 -307.659 255 255 255
50.6481 -23.4083 -308.254 255 255 255
34.2237 -18.1746 -311.227 255 255 255
40.9595 -16.33 -311.368 255 255 255
49.4018 -52.5509 -311.076 255 255 255
42.9868 -16.7867 -310.506 255 255 255
36.3417 -17.6649 -310.596 255 255 255
37.0871 -53.3706 -313.845 255 255 255
44.8869 -31.431 -306.405 255 255 255
47.0781 -28.2772 -306.693 255 255 255
51.0508 -14.2666 -311.898 255 255 255
41.4257 -23.3465 -308.308 255 255 255
50.1393 -21.5049 -308.229 255 255 255
39.7617 -15.575 -311.982 255 255 255
39.8335 -36.0633 -307.804 255 255 255
44.8869 -31.431 -306.405 255 255 255
51.5093 -26.9557 -305.925 255 255 255
52.5233 -55.1806 -313.583 255 255 255
45.1287 -11.5971 -314.675 255 255 255
47.6826 -35.6623 -306.215 255 255 255
35.3003 -29.4483 -307.695 255 255 255
51.7679 -24.513 -306.773 255 255 255
37.6235 -30.8669 -307.138 255 255 255
48.5332 -57.0128 -315.775 255 255 255
51.5351 -58.0608 -317.028 255 255 255
39.845 -26.7525 -307.355 255 255 255
46.7921 -38.2207 -306.219 255 255 255
52.9135 -23.2017 -305.414 255 255 255
37.1874 -48.0667 -311.316 255 255 255
26.8144 -40.672 -309.47 255 255 255
38.4739 -22.9019 -308.338 255 255 255
46.5792 -41.1227 -308.083 255 255 255
44.8077 -38.2112 -307 255 255 255
45.1287 -11.5971 -314.675 255 255 255
50.848 -31.3662 -305.721 255 255 255
41.0572 -9.64368 -315.392 255 255 255
46.9378 -7.04536 -317.148 255 255 255
51.0759 -19.0252 -308.674 255 255 255
41.3222 -36.6437 -306.98 255 255 255
47.4301 -55.2583 -313.912 255 255 255
46.0408 -44.3401 -308.274 255 255 255
48.0202 -9.43196 -316.018 255 255 255
48.5302 -28.7566 -306.064 255 255 255
34.5024 -7.57346 -317.692 255 255 255
52.0772 -28.593 -304.904 255 255 255
35.6828 -61.5292 -323.577 255 255 255
41.2596 -32.7074 -306.498 255 255 255
52.1266 -52.6393 -312.071 255 255 255
45.6238 -47.1959 -309.409 255 255 255
41.6282 -24.0938 -308.095 255 255 255
38.4739 -22.9019 -308.338 255 255 255
58.6026 -47.8108 -306.677 255 255 255
39.1369 -13.7084 -313.599 255 255 255
41.7314 -11.2569 -314.33 255 255 255
35.7566 -50.5978 -312.118 255 255 255
42.1629 -45.9485 -308.992 255 255 255
36.3822 -12.0058 -314.729 255 255 255
51.7835 -18.3967 -308.122 255 255 255
49.1924 -58.2719 -316.616 255 255 255
47.9109 -11.3508 -313.119 255 255 255
47.0565 -45.1847 -308.238 255 255 255
37.2877 -55.1859 -315.836 255 255 255
33.3864 -24.0426 -308.268 255 255 255
36.0115 -50.0327 -312.691 255 255 255
43.0995 -25.8879 -307.536 255 255 255
52.0772 -28.593 -304.904 255 255 255
34.7816 -27.7317 -307.924 255 255 255
50.9871 -9.56292 -313.973 255 255 255
46.0408 -44.3401 -308.274 255 255 255
50.44 -15.2014 -310.554 255 255 255
40.3546 -32.4962 -307.457 255 255 255
53.5891 -62.6643 -322.515 255 255 255
34.9316 -13.2502 -314.58 255 255 255
47.753 -42.4268 -307.402 255 255 255
49.7045 -12.0357 -312.218 255 255 255
49.7588 -40.1806 -307.445 255 255 255
58.6026 -47.8108 -306.677 255 255 255
46.9262 -22.7295 -308.291 255 255 255
43.2069 -21.6864 -308.506 255 255 255
